<svg width="30" height="30" viewBox="0 0 30 30" fill="none" xmlns="http://www.w3.org/2000/svg">
<path d="M22.5 0H7.5C3.35786 0 0 3.35786 0 7.5V22.5C0 26.6421 3.35786 30 7.5 30H22.5C26.6421 30 30 26.6421 30 22.5V7.5C30 3.35786 26.6421 0 22.5 0Z" fill="#0C8FDF"/>
<path d="M12.1875 18.483L8.47732 14.7728L8.25003 14.5455L8.02274 14.7728L6.71024 16.0853L6.48297 16.3126L6.71024 16.5399L11.9602 21.79L12.1875 22.0172L12.4148 21.79L23.6648 10.5399L23.892 10.3126L23.6648 10.0853L22.3523 8.77282L22.125 8.54553L21.8978 8.77282L12.1875 18.483Z" fill="white" stroke="white" stroke-width="0.342857"/>
</svg>
