<svg width="176" height="61" viewBox="0 0 176 61" fill="none" xmlns="http://www.w3.org/2000/svg">
<path d="M44.5889 11.3627L33.5128 30.9436L44.5889 50.5245C55.4114 50.5245 64.185 41.7578 64.185 30.9436C64.185 20.1293 55.4114 11.3627 44.5889 11.3627Z" fill="#F6993F"/>
<path d="M25.0576 30.9447C25.0576 41.7399 33.8123 50.4913 44.6118 50.4913V11.3982C33.8124 11.3982 25.0576 20.1494 25.0576 30.9447Z" fill="#FAAD63"/>
<path fill-rule="evenodd" clip-rule="evenodd" d="M37.0596 30.3908C38.0297 29.3129 39.6026 29.3129 40.5727 30.3908L44.0859 34.2943C45.056 35.3723 45.056 37.1199 44.0859 38.1979C43.1158 39.2758 41.5429 39.2758 40.5727 38.1979L37.0596 34.2943C36.0894 33.2164 36.0894 31.4687 37.0596 30.3908Z" fill="white"/>
<path fill-rule="evenodd" clip-rule="evenodd" d="M40.9111 37.9594C39.8828 36.9321 39.8266 35.2061 40.7854 34.1044L48.8875 24.7954C49.8464 23.6937 51.4573 23.6334 52.4855 24.6608C53.5138 25.6881 53.57 27.414 52.6112 28.5157L44.5091 37.8248C43.5502 38.9265 41.9393 38.9868 40.9111 37.9594Z" fill="white"/>
<path d="M12.6492 19.8406V38.9749C12.6492 41.1152 13.6123 42.1853 15.5386 42.1853C15.8382 42.1853 16.2449 42.1211 16.7586 41.9927C17.2722 41.8215 17.6789 41.7359 17.9785 41.7359C18.535 41.7359 19.0059 41.9713 19.3911 42.4422C19.7764 42.913 19.969 43.5123 19.969 44.24C19.969 45.1389 19.4553 45.9095 18.428 46.5515C17.4006 47.1936 16.2449 47.5147 14.9607 47.5147C13.5481 47.5147 12.2425 47.3649 11.044 47.0652C9.88819 46.7656 8.83944 46.0165 7.89771 44.8179C6.99878 43.5765 6.54932 41.7145 6.54932 39.2317V19.8406H2.8252C2.01188 19.8406 1.32698 19.5837 0.770506 19.0701C0.256834 18.5136 -2.03318e-06 17.8287 -2.03318e-06 17.0154C-2.03318e-06 16.2021 0.256834 15.5386 0.770506 15.0249C1.32698 14.5112 2.01188 14.2544 2.8252 14.2544H6.54932V8.86083C6.54932 8.00471 6.82756 7.27701 7.38404 6.67772C7.98332 6.07844 8.73243 5.7788 9.63135 5.7788C10.4875 5.7788 11.1938 6.07844 11.7503 6.67772C12.3495 7.27701 12.6492 8.00471 12.6492 8.86083V14.2544H17.9785C18.7918 14.2544 19.4553 14.5326 19.969 15.0891C20.5255 15.6028 20.8037 16.2663 20.8037 17.0796C20.8037 17.8929 20.5255 18.5564 19.969 19.0701C19.4553 19.5837 18.7918 19.8406 17.9785 19.8406H12.6492Z" fill="#38C172"/>
<path d="M97.0359 -1.53086e-05C97.9348 -1.53086e-05 98.6625 0.299627 99.219 0.898911C99.8183 1.45539 100.118 2.18309 100.118 3.08202V44.4326C100.118 45.2888 99.8183 46.0165 99.219 46.6158C98.6625 47.215 97.9348 47.5147 97.0359 47.5147C96.137 47.5147 95.4093 47.2364 94.8528 46.68C94.2963 46.0807 94.0181 45.3316 94.0181 44.4326V42.6348C92.9479 44.1758 91.4283 45.4814 89.4592 46.5515C87.533 47.6217 85.4569 48.1568 83.231 48.1568C80.3202 48.1568 77.6876 47.4077 75.3333 45.9095C72.9789 44.4112 71.1169 42.3351 69.7471 39.6812C68.3773 36.9844 67.6924 33.9666 67.6924 30.6277C67.6924 27.2888 68.3559 24.2924 69.6829 21.6384C71.0527 18.9417 72.9147 16.8442 75.269 15.3459C77.6234 13.8477 80.2131 13.0986 83.0383 13.0986C85.3071 13.0986 87.4046 13.5695 89.3308 14.5112C91.2571 15.453 92.8195 16.6729 94.0181 18.1711V3.08202C94.0181 2.18309 94.2963 1.45539 94.8528 0.898911C95.4093 0.299627 96.137 -1.53086e-05 97.0359 -1.53086e-05ZM83.9373 42.5064C85.9492 42.5064 87.7256 41.9927 89.2666 40.9654C90.8504 39.938 92.0704 38.5254 92.9265 36.7276C93.8255 34.9297 94.2749 32.8964 94.2749 30.6277C94.2749 28.4018 93.8255 26.3899 92.9265 24.592C92.0704 22.7514 90.8504 21.3174 89.2666 20.29C87.7256 19.2627 85.9492 18.749 83.9373 18.749C81.9254 18.749 80.1275 19.2627 78.5437 20.29C77.0027 21.3174 75.7827 22.7514 74.8838 24.592C74.0277 26.3899 73.5996 28.4018 73.5996 30.6277C73.5996 32.8964 74.0277 34.9297 74.8838 36.7276C75.7827 38.5254 77.0027 39.938 78.5437 40.9654C80.1275 41.9927 81.9254 42.5064 83.9373 42.5064ZM136.477 13.4197C137.376 13.4197 138.103 13.7193 138.66 14.3186C139.259 14.8751 139.559 15.6242 139.559 16.5659V44.4326C139.559 45.2888 139.259 46.0165 138.66 46.6158C138.103 47.215 137.376 47.5147 136.477 47.5147C135.578 47.5147 134.85 47.2364 134.294 46.68C133.737 46.0807 133.459 45.3316 133.459 44.4326V42.7632C132.346 44.2614 130.826 45.5456 128.9 46.6158C126.974 47.6431 124.898 48.1568 122.672 48.1568C119.761 48.1568 117.107 47.4077 114.71 45.9095C112.356 44.4112 110.494 42.3351 109.124 39.6812C107.797 36.9844 107.133 33.9666 107.133 30.6277C107.133 27.2888 107.797 24.2924 109.124 21.6384C110.494 18.9417 112.356 16.8442 114.71 15.3459C117.064 13.8477 119.654 13.0986 122.479 13.0986C124.748 13.0986 126.845 13.5695 128.772 14.5112C130.741 15.453 132.303 16.6515 133.459 18.1069V16.5659C133.459 15.667 133.737 14.9179 134.294 14.3186C134.85 13.7193 135.578 13.4197 136.477 13.4197ZM123.378 42.5064C125.39 42.5064 127.167 41.9927 128.708 40.9654C130.291 39.938 131.511 38.5254 132.367 36.7276C133.266 34.9297 133.716 32.8964 133.716 30.6277C133.716 28.4018 133.266 26.3899 132.367 24.592C131.511 22.7942 130.291 21.3816 128.708 20.3543C127.167 19.2841 125.39 18.749 123.378 18.749C121.366 18.749 119.568 19.2627 117.985 20.29C116.444 21.3174 115.224 22.73 114.325 24.5278C113.469 26.3257 113.041 28.359 113.041 30.6277C113.041 32.8964 113.469 34.9297 114.325 36.7276C115.224 38.5254 116.444 39.938 117.985 40.9654C119.568 41.9927 121.366 42.5064 123.378 42.5064ZM172.918 13.5481C173.817 13.5481 174.545 13.8477 175.101 14.447C175.7 15.0463 176 15.774 176 16.6301V44.3684C176 49.7192 174.523 53.7216 171.57 56.3755C168.616 59.0295 164.721 60.3565 159.884 60.3565C158.3 60.3565 156.737 60.2067 155.196 59.907C153.655 59.6074 152.392 59.2007 151.408 58.6871C149.824 57.9593 149.032 56.9748 149.032 55.7334C149.032 55.5194 149.075 55.2412 149.161 54.8987C149.417 54.171 149.781 53.6145 150.252 53.2293C150.723 52.844 151.258 52.6514 151.857 52.6514C152.2 52.6514 152.521 52.7156 152.821 52.844C154.148 53.4433 155.325 53.9142 156.352 54.2566C157.379 54.5991 158.578 54.7703 159.948 54.7703C166.583 54.7703 169.9 51.3672 169.9 44.5611V43.2769C168.744 44.8179 167.246 46.0165 165.406 46.8726C163.608 47.7287 161.532 48.1568 159.177 48.1568C155.624 48.1568 152.842 47.0224 150.83 44.7537C148.861 42.485 147.876 39.5099 147.876 35.8286V16.6301C147.876 15.7312 148.155 15.0035 148.711 14.447C149.268 13.8477 149.995 13.5481 150.894 13.5481C151.793 13.5481 152.521 13.8477 153.077 14.447C153.677 15.0463 153.976 15.774 153.976 16.6301V34.2234C153.976 37.0486 154.597 39.1461 155.838 40.5159C157.08 41.8429 158.963 42.5064 161.489 42.5064C163.929 42.5064 165.941 41.7359 167.524 40.1948C169.108 38.6538 169.9 36.6633 169.9 34.2234V16.6301C169.9 15.7312 170.178 15.0035 170.735 14.447C171.291 13.8477 172.019 13.5481 172.918 13.5481Z" fill="#38C172"/>
</svg>
