<svg width="26" height="26" viewBox="0 0 26 26" fill="none" xmlns="http://www.w3.org/2000/svg">
<path fill-rule="evenodd" clip-rule="evenodd" d="M13.0001 0C5.82017 0 0 5.82005 0 12.9999C0 20.1797 5.82017 26 13.0001 26C20.1801 26 26 20.1797 26 12.9999C26 5.82005 20.1801 0 13.0001 0ZM20.2987 13.2757C20.2987 14.294 19.4732 15.1195 18.4549 15.1195H14.7388V18.8353C14.7388 19.8538 13.9133 20.6793 12.895 20.6793H12.8762C11.8577 20.6793 11.0322 19.8538 11.0322 18.8353V15.1195H7.05129C6.03303 15.1195 5.20752 14.294 5.20752 13.2757V13.2567C5.20752 12.2384 6.03303 11.4129 7.05129 11.4129H11.0322V7.43213C11.0322 6.41389 11.8577 5.58839 12.876 5.58839H12.8948C13.9133 5.58839 14.7388 6.41389 14.7388 7.43213V11.4129H18.4549C19.4732 11.4129 20.2987 12.2384 20.2987 13.2567V13.2757Z" fill="#38C172"/>
</svg>
